<?xml version="1.0" encoding="utf-8"?>
<!-- Generator: Adobe Illustrator 20.0.0, SVG Export Plug-In . SVG Version: 6.00 Build 0)  -->
<svg version="1.1" id="Layer_1" xmlns="http://www.w3.org/2000/svg" xmlns:xlink="http://www.w3.org/1999/xlink" x="0px" y="0px"
	 viewBox="0 0 350 350" style="enable-background:new 0 0 350 350;" xml:space="preserve">
<style type="text/css">
	.st0{fill:#FFFFFF;}
	.st1{fill:#2DBE60;}
</style>
<g>
	<line class="st0" x1="171" y1="25" x2="171" y2="325"/>
	<g>
		<path class="st1" d="M146,25c0,33.9,0,67.8,0,101.8c0,53.7,0,107.4,0,161.1c0,12.4,0,24.8,0,37.2c0,13.1,11.5,25.6,25,25
			c13.5-0.6,25-11,25-25c0-33.9,0-67.8,0-101.8c0-53.7,0-107.4,0-161.1c0-12.4,0-24.8,0-37.2c0-13.1-11.5-25.6-25-25
			C157.5,0.6,146,11,146,25L146,25z"/>
	</g>
</g>
<g>
	<line class="st0" x1="25" y1="175" x2="325" y2="175"/>
	<g>
		<path class="st1" d="M25,200c33.9,0,67.8,0,101.8,0c53.7,0,107.4,0,161.1,0c12.4,0,24.8,0,37.2,0c13.1,0,25.6-11.5,25-25
			c-0.6-13.5-11-25-25-25c-33.9,0-67.8,0-101.8,0c-53.7,0-107.4,0-161.1,0c-12.4,0-24.8,0-37.2,0c-13.1,0-25.6,11.5-25,25
			C0.6,188.6,11,200,25,200L25,200z"/>
	</g>
</g>
</svg>
