<?xml version="1.0" encoding="utf-8"?>
<!-- Generator: Adobe Illustrator 20.0.0, SVG Export Plug-In . SVG Version: 6.00 Build 0)  -->
<svg version="1.1" id="Layer_1" xmlns="http://www.w3.org/2000/svg" xmlns:xlink="http://www.w3.org/1999/xlink" x="0px" y="0px"
	 viewBox="0 0 318.1 311.2" style="enable-background:new 0 0 318.1 311.2;" xml:space="preserve">
<style type="text/css">
	.st0{fill:#2DBE60;}
	.st1{fill:#FFFFFF;}
	.st2{fill:#2DBE60;stroke:#FFFFFF;stroke-width:4;stroke-miterlimit:10;}
</style>
<g>
	<path class="st0" d="M22.9,287c-5.5,0-10-4.5-10-10V12c0-5.5,4.5-10,10-10h40.2c5.5,0,10,4.5,10,10v265c0,5.5-4.5,10-10,10H22.9z"
		/>
	<path class="st1" d="M63.1,4c4.4,0,8,3.6,8,8v265c0,4.4-3.6,8-8,8H22.9c-4.4,0-8-3.6-8-8V12c0-4.4,3.6-8,8-8H63.1 M63.1,0H22.9
		c-6.6,0-12,5.4-12,12v265c0,6.6,5.4,12,12,12h40.2c6.6,0,12-5.4,12-12V12C75.1,5.4,69.7,0,63.1,0L63.1,0z"/>
</g>
<g>
	<path class="st0" d="M103.4,287c-5.5,0-10-4.5-10-10V12c0-5.5,4.5-10,10-10h40.2c5.5,0,10,4.5,10,10v265c0,5.5-4.5,10-10,10H103.4z
		"/>
	<path class="st1" d="M143.6,4c4.4,0,8,3.6,8,8v265c0,4.4-3.6,8-8,8h-40.2c-4.4,0-8-3.6-8-8V12c0-4.4,3.6-8,8-8H143.6 M143.6,0
		h-40.2c-6.6,0-12,5.4-12,12v265c0,6.6,5.4,12,12,12h40.2c6.6,0,12-5.4,12-12V12C155.6,5.4,150.2,0,143.6,0L143.6,0z"/>
</g>
<g>
	<path class="st0" d="M261,285.2c-3.7,0-6.9-2.3-8.3-5.8L154.9,34.1c-1.9-4.9,0.2-10.5,4.9-12.6l39-17.1c1.1-0.5,2.2-0.7,3.4-0.7
		c3.7,0,6.9,2.3,8.3,5.8l97.7,245.3c1.9,4.9-0.2,10.5-4.9,12.5l-39,17.1C263.3,285,262.1,285.2,261,285.2z"/>
	<path class="st1" d="M202.2,5.7L202.2,5.7c2.8,0,5.4,1.8,6.5,4.6l97.7,245.3c1.5,3.8-0.2,8.4-3.8,10l-39,17.1
		c-0.8,0.4-1.7,0.6-2.6,0.6c-2.8,0-5.4-1.8-6.5-4.6L156.8,33.4c-1.5-3.8,0.2-8.4,3.8-10l39-17.1C200.4,5.9,201.3,5.7,202.2,5.7
		 M202.2,1.7c-1.4,0-2.8,0.3-4.2,0.9l-39,17.1c-5.6,2.5-8.3,9.3-5.9,15.1l97.7,245.3c1.8,4.4,5.9,7.1,10.2,7.1
		c1.4,0,2.8-0.3,4.2-0.9l39-17.1c5.6-2.5,8.3-9.3,5.9-15.1L212.4,8.8C210.6,4.4,206.5,1.7,202.2,1.7L202.2,1.7z"/>
</g>
<line class="st2" x1="10.9" y1="53.7" x2="75.1" y2="53.7"/>
<line class="st2" x1="10.9" y1="70.5" x2="75.1" y2="70.5"/>
<line class="st2" x1="10.9" y1="218.5" x2="75.1" y2="218.5"/>
<line class="st2" x1="10.9" y1="235.3" x2="75.1" y2="235.3"/>
<line class="st2" x1="91.4" y1="114.8" x2="155.6" y2="114.8"/>
<line class="st2" x1="91.4" y1="127.7" x2="155.6" y2="127.7"/>
<line class="st2" x1="91.4" y1="53.7" x2="155.6" y2="53.7"/>
<line class="st2" x1="91.4" y1="66.6" x2="155.6" y2="66.6"/>
<line class="st2" x1="223" y1="210.3" x2="282.3" y2="184.4"/>
<line class="st2" x1="229.1" y1="225.8" x2="288.4" y2="199.8"/>
<g>
	<g>
		<path class="st0" d="M10.9,310c33.3,0,66.6,0,99.9,0c53,0,106,0,159,0c12.1,0,24.2,0,36.3,0c12.9,0,12.9-20,0-20
			c-33.3,0-66.6,0-99.9,0c-53,0-106,0-159,0c-12.1,0-24.2,0-36.3,0C-2,290-2,310,10.9,310L10.9,310z"/>
	</g>
</g>
</svg>
