<?xml version="1.0" encoding="utf-8"?>
<!-- Generator: Adobe Illustrator 20.0.0, SVG Export Plug-In . SVG Version: 6.00 Build 0)  -->
<svg version="1.1" id="Layer_1" xmlns="http://www.w3.org/2000/svg" xmlns:xlink="http://www.w3.org/1999/xlink" x="0px" y="0px"
	 viewBox="0 0 91.9 104.4" style="enable-background:new 0 0 91.9 104.4;" xml:space="preserve">
<style type="text/css">
	.st0{fill:#807F83;stroke:#807F83;stroke-miterlimit:10;}
	.st1{fill:none;stroke:#FFFFFF;stroke-miterlimit:10;}
	.st2{fill:#444545;}
</style>
<path class="st0" d="M79.4,103.9H12.5c-6.6,0-12-5.4-12-12V25.1c0-0.6,0.1-1.5,0.6-2.3c1.8-2.3,5.9,0,7.9-2c1.9-2-0.2-6,1.9-7.4
	c0.6-0.4,1.2-0.4,1.6-0.4h66.9c6.6,0,12,5.4,12,12v66.9C91.4,98.5,86,103.9,79.4,103.9z"/>
<line class="st1" x1="22" y1="23.1" x2="80.5" y2="23.1"/>
<line class="st1" x1="11.2" y1="34" x2="80.5" y2="34.8"/>
<line class="st1" x1="11.2" y1="46.5" x2="80.5" y2="46.5"/>
<line class="st1" x1="11.2" y1="40.7" x2="80.5" y2="40.7"/>
<line class="st1" x1="11.2" y1="29" x2="80.6" y2="29"/>
<line class="st1" x1="22" y1="58.2" x2="80.5" y2="58.2"/>
<line class="st1" x1="11.2" y1="64.1" x2="80.5" y2="64.1"/>
<line class="st1" x1="11.2" y1="69.9" x2="80.5" y2="69.9"/>
<line class="st1" x1="11.2" y1="52.4" x2="57.3" y2="52.4"/>
<line class="st1" x1="11.2" y1="75.8" x2="80.5" y2="75.8"/>
<line class="st1" x1="11.2" y1="81.6" x2="80.5" y2="81.6"/>
<line class="st1" x1="11.2" y1="87.5" x2="80.5" y2="87.5"/>
<line class="st1" x1="11.2" y1="93.4" x2="57.9" y2="93.3"/>
<path class="st2" d="M61,92.1c-0.9,0.4-1.9,0.8-2.8,1.2c-0.1-1-0.2-2-0.3-3L86,41.7l3.1,1.8L61,92.1z"/>
<path class="st2" d="M60.4,50.4c-0.9,0.4-1.9,0.8-2.8,1.2c-0.1-1-0.2-2-0.3-3L85.4,0l3.1,1.8L60.4,50.4z"/>
</svg>
