<?xml version="1.0" encoding="utf-8"?>
<!-- Generator: Adobe Illustrator 20.0.0, SVG Export Plug-In . SVG Version: 6.00 Build 0)  -->
<svg version="1.1" id="Layer_1" xmlns="http://www.w3.org/2000/svg" xmlns:xlink="http://www.w3.org/1999/xlink" x="0px" y="0px"
	 viewBox="0 0 260.8 282.9" style="enable-background:new 0 0 260.8 282.9;" xml:space="preserve">
<style type="text/css">
	.st0{fill:#FFFFFF;}
</style>
<g>
	<g>
		<path class="st0" d="M0.4,25.4c5,27.4,10,54.9,15,82.3c7.9,43.5,15.9,87,23.8,130.5c1.8,10,3.7,20,5.5,30
			c1.6,8.5,11.1,14.7,19.3,14.7c38.7,0,77.4,0,116.1,0c5.5,0,11.1,0,16.6,0c8.1,0,17.7-6.2,19.3-14.7c5-27.4,10-54.8,15-82.3
			c7.9-43.5,15.9-87,23.8-130.5c1.8-10,3.7-20,5.5-30c1.9-10.3-2.8-22.1-14-24.6c-9.8-2.2-22.6,3-24.6,14c-5,27.4-10,54.8-15,82.3
			c-7.9,43.5-15.9,87-23.8,130.5c-1.8,10-3.7,20-5.5,30c6.4-4.9,12.9-9.8,19.3-14.7c-38.7,0-77.4,0-116.1,0c-5.5,0-11.1,0-16.6,0
			c6.4,4.9,12.9,9.8,19.3,14.7c-5-27.4-10-54.9-15-82.3c-7.9-43.5-15.9-87-23.8-130.5c-1.8-10-3.7-20-5.5-30
			c-1.9-10.3-15-17.1-24.6-14C3.4,4.3-1.6,14.3,0.4,25.4L0.4,25.4z"/>
	</g>
</g>
</svg>
