<?xml version="1.0" encoding="utf-8"?>
<!-- Generator: Adobe Illustrator 20.0.0, SVG Export Plug-In . SVG Version: 6.00 Build 0)  -->
<svg version="1.1" id="Layer_1" xmlns="http://www.w3.org/2000/svg" xmlns:xlink="http://www.w3.org/1999/xlink" x="0px" y="0px"
	 viewBox="0 0 341.6 292.4" style="enable-background:new 0 0 341.6 292.4;" xml:space="preserve">
<style type="text/css">
	.st0{fill:#FFFFFF;}
	.st1{fill:#444545;}
</style>
<g>
	<polygon class="st0" points="38.6,259.7 8.9,242.5 37.3,193.2 148.9,0 178.6,17.2 66.7,211.1 	"/>
	<g>
		<path class="st0" d="M39.3,258.6c-9.9-5.7-19.9-11.5-29.8-17.2c0.1,0.6,0.3,1.1,0.4,1.7c14.7-25.4,29.3-50.8,44-76.2
			c25.1-43.4,50.1-86.9,75.2-130.3c6.9-12,13.9-24,20.8-36.1c-0.6,0.1-1.1,0.3-1.7,0.4c9.9,5.7,19.9,11.5,29.8,17.2
			c-0.1-0.6-0.3-1.1-0.4-1.7c-18.1,31.3-36.1,62.6-54.2,93.9c-19.2,33.2-38.4,66.5-57.6,99.7C56.4,226.5,47,242.8,37.6,259
			c-0.8,1.4,1.4,2.7,2.2,1.3c14.6-25.3,29.3-50.7,43.9-76c25.1-43.5,50.2-87,75.3-130.5c6.9-12,13.9-24,20.8-36
			c0.3-0.6,0.1-1.4-0.4-1.7c-9.9-5.7-19.9-11.5-29.8-17.2c-0.6-0.3-1.4-0.1-1.7,0.4c-18.1,31.3-36.2,62.7-54.3,94
			c-19,33-38.1,66-57.1,99c-9.5,16.5-19.1,33-28.6,49.5c-0.3,0.6-0.1,1.4,0.4,1.7c9.9,5.7,19.9,11.5,29.8,17.2
			C39.4,261.6,40.7,259.4,39.3,258.6z"/>
	</g>
</g>
<g>
	<path class="st1" d="M8.3,243l30,17.3c-12.1,9.7-24.1,19.4-36.2,29.1C4.1,274,6.2,258.5,8.3,243z"/>
	<g>
		<path class="st1" d="M7.7,244.1c10,5.8,20,11.5,30,17.3c-0.1-0.7-0.2-1.3-0.3-2c-12.1,9.7-24.1,19.4-36.2,29.1
			c0.7,0.4,1.4,0.8,2.1,1.2c2.1-15.5,4.2-30.9,6.2-46.4c0.2-1.6-2.2-2.3-2.4-0.7c-2.1,15.5-4.2,30.9-6.2,46.4
			c-0.2,1.3,1.1,2,2.1,1.2c12.1-9.7,24.1-19.4,36.2-29.1c0.6-0.5,0.4-1.6-0.3-2c-10-5.8-20-11.5-30-17.3
			C7.5,241.1,6.3,243.3,7.7,244.1z"/>
	</g>
</g>
<g>
	<polygon class="st0" points="201.6,262.7 171.9,245.5 200.3,196.2 311.9,3 341.6,20.2 229.7,214.1 	"/>
	<g>
		<path class="st0" d="M202.3,261.6c-9.9-5.7-19.9-11.5-29.8-17.2c0.1,0.6,0.3,1.1,0.4,1.7c14.7-25.4,29.3-50.8,44-76.2
			c25.1-43.4,50.1-86.9,75.2-130.3c6.9-12,13.9-24,20.8-36.1c-0.6,0.1-1.1,0.3-1.7,0.4c9.9,5.7,19.9,11.5,29.8,17.2
			c-0.1-0.6-0.3-1.1-0.4-1.7c-18.1,31.3-36.1,62.6-54.2,93.9c-19.2,33.2-38.4,66.5-57.6,99.7c-9.4,16.3-18.8,32.6-28.2,48.9
			c-0.8,1.4,1.4,2.7,2.2,1.3c14.6-25.3,29.3-50.7,43.9-76c25.1-43.5,50.2-87,75.3-130.5c6.9-12,13.9-24,20.8-36
			c0.3-0.6,0.1-1.4-0.4-1.7c-9.9-5.7-19.9-11.5-29.8-17.2c-0.6-0.3-1.4-0.1-1.7,0.4c-18.1,31.3-36.2,62.7-54.3,94
			c-19,33-38.1,66-57.1,99c-9.5,16.5-19.1,33-28.6,49.5c-0.3,0.6-0.1,1.4,0.4,1.7c9.9,5.7,19.9,11.5,29.8,17.2
			C202.4,264.6,203.7,262.4,202.3,261.6z"/>
	</g>
</g>
<g>
	<path class="st1" d="M171.3,246l30,17.3c-12.1,9.7-24.1,19.4-36.2,29.1C167.1,277,169.2,261.5,171.3,246z"/>
	<g>
		<path class="st1" d="M170.7,247.1c10,5.8,20,11.5,30,17.3c-0.1-0.7-0.2-1.3-0.3-2c-12.1,9.7-24.1,19.4-36.2,29.1
			c0.7,0.4,1.4,0.8,2.1,1.2c2.1-15.5,4.2-30.9,6.2-46.4c0.2-1.6-2.2-2.3-2.4-0.7c-2.1,15.5-4.2,30.9-6.2,46.4
			c-0.2,1.3,1.1,2,2.1,1.2c12.1-9.7,24.1-19.4,36.2-29.1c0.6-0.5,0.4-1.6-0.3-2c-10-5.8-20-11.5-30-17.3
			C170.5,244.1,169.3,246.3,170.7,247.1z"/>
	</g>
</g>
</svg>
