<?xml version="1.0" encoding="utf-8"?>
<!-- Generator: Adobe Illustrator 20.1.0, SVG Export Plug-In . SVG Version: 6.00 Build 0)  -->
<svg version="1.1" id="Layer_1" xmlns="http://www.w3.org/2000/svg" xmlns:xlink="http://www.w3.org/1999/xlink" x="0px" y="0px"
	 viewBox="0 0 412.1 449.2" style="enable-background:new 0 0 412.1 449.2;" xml:space="preserve">
<style type="text/css">
	.st0{fill:none;stroke:#2DBE60;stroke-width:15;stroke-miterlimit:10;}
	.st1{fill:none;stroke:#2DBE60;stroke-width:20;stroke-miterlimit:10;}
	.st2{fill:#2DBE60;}
</style>
<line class="st0" x1="349.2" y1="387.2" x2="249.3" y2="233.1"/>
<line class="st0" x1="61.9" y1="228.3" x2="249.3" y2="233.1"/>
<line class="st0" x1="350.2" y1="61.9" x2="249.3" y2="233.1"/>
<polygon class="st1" points="350.2,394.7 350.2,61.9 61.9,228.3 "/>
<ellipse transform="matrix(0.866 -0.5 0.5 0.866 -146.843 226.4734)" class="st2" cx="349.2" cy="387.2" rx="61.9" ry="61.9"/>
<ellipse transform="matrix(0.866 -0.5 0.5 0.866 15.9404 183.3786)" class="st2" cx="350.2" cy="61.9" rx="61.9" ry="61.9"/>
<ellipse transform="matrix(0.866 -0.5 0.5 0.866 -105.8737 61.5645)" class="st2" cx="61.9" cy="228.3" rx="61.9" ry="61.9"/>
<ellipse transform="matrix(0.866 -0.5 0.5 0.866 -83.1612 155.8869)" class="st2" cx="249.3" cy="233.1" rx="41.8" ry="41.8"/>
</svg>
