<?xml version="1.0" encoding="utf-8"?>
<!-- Generator: Adobe Illustrator 20.0.0, SVG Export Plug-In . SVG Version: 6.00 Build 0)  -->
<svg version="1.1" id="Layer_1" xmlns="http://www.w3.org/2000/svg" xmlns:xlink="http://www.w3.org/1999/xlink" x="0px" y="0px"
	 viewBox="0 0 213 213" style="enable-background:new 0 0 213 213;" xml:space="preserve">
<style type="text/css">
	.st0{fill:#2DBE60;}
	.st1{fill:#FFFFFF;}
</style>
<g>
	<path class="st0" d="M129.7,3.5L3.5,129.7c-4.7,4.7-4.7,12.3,0,17L13.8,157c-10.4,10.4-10.4,27.2,0,37.6
		c10.4,10.4,27.2,10.4,37.6,0l14.9,14.9c4.7,4.7,12.3,4.7,17,0L209.5,83.3c4.7-4.7,4.7-12.3,0-17L146.6,3.5
		C142-1.2,134.3-1.2,129.7,3.5z M37.6,180.7c-2.7,2.7-7.2,2.7-9.9,0c-2.7-2.7-2.7-7.2,0-9.9c2.7-2.7,7.2-2.7,9.9,0
		C40.3,173.6,40.3,178,37.6,180.7z"/>
</g>
<g>
	<g>
		<path class="st1" d="M46.3,125.2c4-3.9,8.4-6,13-8.9c4.7-2.9,8.9-7,12.1-11.5c2.7-3.7,4.2-8,7-11.6c3.8-4.9,8.4-8.2,13.8-11.1
			c4.7-2.5,8.8-5.9,12.3-10c3-3.5,4.8-7.6,7.2-11.5c6.3-10.3,17.5-13.4,25.7-21.4c2.3-2.2-1.2-5.8-3.5-3.5c-4,3.9-8.4,6-13,8.9
			c-4.7,2.9-8.9,7-12.1,11.5c-2.7,3.7-4.2,8-7,11.6c-3.8,4.9-8.4,8.2-13.8,11.1c-4.7,2.5-8.8,5.9-12.3,10c-3,3.5-4.8,7.6-7.2,11.5
			c-6.3,10.3-17.5,13.4-25.7,21.4C40.4,124,43.9,127.5,46.3,125.2L46.3,125.2z"/>
	</g>
</g>
<g>
	<g>
		<path class="st1" d="M60.3,139.2c4.1-3.9,8.9-5.2,13.3-8.4c4.3-3,7.9-7.2,10.1-12c2.6-5.5,5.8-10.4,11.3-13.4
			c4.4-2.5,8.4-4.2,12.2-7.8c2.3-2.2-1.2-5.8-3.5-3.5c-4.1,3.9-8.9,5.2-13.3,8.4c-4.3,3-7.9,7.2-10.1,12
			c-2.6,5.5-5.8,10.4-11.3,13.4c-4.4,2.5-8.4,4.2-12.2,7.8C54.4,137.9,58,141.4,60.3,139.2L60.3,139.2z"/>
	</g>
</g>
</svg>
