<?xml version="1.0" encoding="utf-8"?>
<!-- Generator: Adobe Illustrator 20.0.0, SVG Export Plug-In . SVG Version: 6.00 Build 0)  -->
<svg version="1.1" id="Layer_1" xmlns="http://www.w3.org/2000/svg" xmlns:xlink="http://www.w3.org/1999/xlink" x="0px" y="0px"
	 viewBox="0 0 246.1 244.2" style="enable-background:new 0 0 246.1 244.2;" xml:space="preserve">
<style type="text/css">
	.st0{fill:#2DBE60;}
	.st1{fill:#FFFFFF;}
</style>
<g>
	<path class="st0" d="M79.6,242.8c-3.8,0-7.3-2-9.1-5.2L59.2,218l-1.3,0.8c-3.8,2.2-8.2,3.4-12.5,3.4c-9,0-17.3-4.8-21.8-12.6
		c-3.4-5.8-4.2-12.6-2.5-19.1c1.7-6.5,5.9-11.9,11.7-15.2l1.3-0.8l-8.1-14c-2.9-5-1.2-11.4,3.8-14.3L184.4,57
		c1.6-0.9,3.4-1.4,5.2-1.4c3.8,0,7.3,2,9.1,5.2l44.5,77c2.9,5,1.2,11.4-3.8,14.3L84.8,241.4C83.2,242.3,81.4,242.8,79.6,242.8
		C79.6,242.8,79.6,242.8,79.6,242.8z M45.3,188.5c-1.5,0-3,0.4-4.2,1.1c-2,1.1-3.4,3-4,5.2c-0.6,2.2-0.3,4.5,0.8,6.4
		c1.5,2.6,4.3,4.2,7.4,4.2c1.5,0,3-0.4,4.2-1.1c2-1.1,3.4-3,4-5.2c0.6-2.2,0.3-4.5-0.8-6.4C51.2,190.1,48.4,188.5,45.3,188.5z"/>
	<path class="st1" d="M189.6,57.1c3.2,0,6.2,1.7,7.8,4.5l44.5,77c2.5,4.3,1,9.8-3.3,12.3L84.1,240.1c-1.4,0.8-2.9,1.2-4.5,1.2
		c-3.2,0-6.2-1.7-7.8-4.5l-10.5-18.2l-1.5-2.6l-2.6,1.5c-3.6,2.1-7.7,3.2-11.8,3.2c-8.4,0-16.3-4.5-20.5-11.8
		c-6.5-11.3-2.6-25.7,8.6-32.3l2.6-1.5l-1.5-2.6l-7.3-12.7c-2.5-4.3-1-9.8,3.3-12.3l154.5-89.2C186.5,57.5,188,57.1,189.6,57.1
		 M45.3,207c1.7,0,3.5-0.5,5-1.3c4.8-2.8,6.4-8.9,3.7-13.7c-1.8-3.1-5.1-5-8.7-5c-1.7,0-3.5,0.5-5,1.3c-2.3,1.3-4,3.5-4.7,6.1
		c-0.7,2.6-0.3,5.3,1,7.6C38.5,205.1,41.8,207,45.3,207 M189.6,54.1c-2,0-4.1,0.5-6,1.6L29.1,144.9c-5.7,3.3-7.7,10.7-4.4,16.4
		l7.3,12.7c-12.7,7.3-17.1,23.6-9.7,36.4c4.9,8.5,13.9,13.3,23.1,13.3c4.5,0,9.1-1.1,13.3-3.6l10.5,18.2c2.2,3.8,6.3,6,10.4,6
		c2,0,4.1-0.5,6-1.6l154.5-89.2c5.7-3.3,7.7-10.7,4.4-16.4l-44.5-77C197.8,56.2,193.7,54.1,189.6,54.1L189.6,54.1z M45.3,204
		c-2.4,0-4.8-1.3-6.1-3.5c-1.9-3.3-0.8-7.6,2.6-9.6c1.1-0.6,2.3-0.9,3.5-0.9c2.4,0,4.8,1.3,6.1,3.5c1.9,3.3,0.8,7.6-2.6,9.6
		C47.7,203.7,46.5,204,45.3,204L45.3,204z"/>
</g>
<g>
	<path class="st0" d="M86.2,232.8c-2.5,0-4.9-1-6.7-2.8l-16.7-16.7l-1.8,1.8c-4.6,4.6-10.6,7.1-17.1,7.1c-6.4,0-12.5-2.5-17.1-7.1
		c-9.4-9.4-9.4-24.7,0-34.1l1.8-1.8l-12.1-12.1c-1.8-1.8-2.8-4.2-2.8-6.7s1-4.9,2.8-6.7L142.8,27.6c1.8-1.8,4.2-2.8,6.7-2.8
		s4.9,1,6.7,2.8l62.9,62.9c1.8,1.8,2.8,4.2,2.8,6.7s-1,4.9-2.8,6.7L92.9,230.1C91.1,231.9,88.7,232.8,86.2,232.8z M44,188.6
		c-2.5,0-4.9,1-6.7,2.8c-3.7,3.7-3.7,9.7,0,13.4c1.8,1.8,4.2,2.8,6.7,2.8s4.9-1,6.7-2.8c3.7-3.7,3.7-9.7,0-13.4
		C48.9,189.6,46.5,188.6,44,188.6z"/>
	<path class="st1" d="M149.5,27.3c1.9,0,3.6,0.7,4.9,2l62.9,62.9c1.3,1.3,2,3.1,2,4.9c0,1.9-0.7,3.6-2,4.9L91.1,228.3
		c-1.3,1.3-3.1,2-4.9,2c-1.9,0-3.6-0.7-4.9-2l-14.9-14.9l-3.5-3.5l-3.5,3.5c-4.1,4.1-9.5,6.3-15.3,6.3c-5.8,0-11.2-2.2-15.3-6.3
		c-8.4-8.4-8.4-22.1,0-30.6l3.5-3.5l-3.5-3.5l-10.3-10.3c-1.3-1.3-2-3.1-2-4.9s0.7-3.6,2-4.9L144.5,29.4
		C145.8,28.1,147.6,27.3,149.5,27.3 M44,210.1c3.2,0,6.2-1.2,8.5-3.5c2.3-2.3,3.5-5.3,3.5-8.5c0-3.2-1.2-6.2-3.5-8.5
		c-2.3-2.3-5.3-3.5-8.5-3.5c-3.2,0-6.2,1.2-8.5,3.5c-4.7,4.7-4.7,12.3,0,17C37.8,208.9,40.8,210.1,44,210.1 M149.5,22.3
		c-3.1,0-6.2,1.2-8.5,3.5L14.8,152c-4.7,4.7-4.7,12.3,0,17l10.3,10.3c-10.4,10.4-10.4,27.2,0,37.6c5.2,5.2,12,7.8,18.8,7.8
		c6.8,0,13.6-2.6,18.8-7.8l14.9,14.9c2.3,2.3,5.4,3.5,8.5,3.5c3.1,0,6.2-1.2,8.5-3.5l126.2-126.2c4.7-4.7,4.7-12.3,0-17L158,25.8
		C155.6,23.5,152.6,22.3,149.5,22.3L149.5,22.3z M44,205.1c-1.8,0-3.6-0.7-4.9-2c-2.7-2.7-2.7-7.2,0-9.9c1.4-1.4,3.2-2,4.9-2
		c1.8,0,3.6,0.7,4.9,2c2.7,2.7,2.7,7.2,0,9.9C47.6,204.4,45.8,205.1,44,205.1L44,205.1z"/>
</g>
<g>
	<path class="st0" d="M43.4,224c-4.3,0-8.5-1.1-12.3-3.3c-11.8-6.8-15.8-21.9-9-33.6l1-1.7l-14.4-8.3c-4.8-2.8-6.4-8.9-3.7-13.7
		L94.3,8.9c1.8-3.1,5.1-5,8.7-5c1.7,0,3.5,0.5,5,1.3l77,44.5c4.8,2.8,6.4,8.9,3.7,13.7L99.4,217.9c-1.8,3.1-5.1,5-8.7,5h0
		c-1.7,0-3.5-0.5-5-1.3l-20-11.5l-1,1.7C60.4,219.3,52.2,224,43.4,224z M43.4,190.4c-3.2,0-6.2,1.7-7.8,4.5c-2.5,4.3-1,9.8,3.3,12.3
		c1.4,0.8,2.9,1.2,4.5,1.2c3.2,0,6.2-1.7,7.8-4.5c2.5-4.3,1-9.8-3.3-12.3C46.6,190.8,45,190.4,43.4,190.4z"/>
	<path class="st1" d="M103,5.9c1.4,0,2.8,0.4,4,1.1l77,44.5c1.8,1.1,3.2,2.8,3.7,4.9c0.6,2.1,0.3,4.2-0.8,6.1L97.6,216.9
		c-1.4,2.5-4.1,4-7,4c-1.4,0-2.8-0.4-4-1.1l-18.2-10.5l-3.5-2l-2,3.5c-4,7-11.5,11.3-19.6,11.3c-3.9,0-7.8-1-11.3-3
		c-10.8-6.2-14.5-20.1-8.3-30.9l2-3.5l-3.5-2l-12.7-7.3c-3.8-2.2-5.1-7.1-2.9-10.9L96,9.9C97.4,7.4,100.1,5.9,103,5.9 M43.4,210.4
		c3.9,0,7.6-2.1,9.5-5.5c3-5.3,1.2-12-4-15c-1.7-1-3.6-1.5-5.5-1.5c-3.9,0-7.6,2.1-9.5,5.5c-1.5,2.5-1.9,5.5-1.1,8.3
		s2.6,5.2,5.1,6.7C39.6,209.9,41.5,210.4,43.4,210.4 M103,1.9c-4.2,0-8.2,2.2-10.4,6L3.3,162.4C0,168.1,2,175.5,7.7,178.8l12.7,7.3
		c-7.3,12.7-3,29,9.7,36.4c4.2,2.4,8.8,3.6,13.3,3.6c9.2,0,18.1-4.8,23.1-13.3l18.2,10.5c1.9,1.1,3.9,1.6,6,1.6
		c4.2,0,8.2-2.2,10.4-6l89.2-154.5c3.3-5.7,1.3-13.1-4.4-16.4l-77-44.5C107.1,2.4,105,1.9,103,1.9L103,1.9z M43.4,206.4
		c-1.2,0-2.4-0.3-3.5-0.9c-3.3-1.9-4.5-6.2-2.6-9.6c1.3-2.2,3.6-3.5,6.1-3.5c1.2,0,2.4,0.3,3.5,0.9c3.3,1.9,4.5,6.2,2.6,9.6
		C48.2,205.2,45.8,206.4,43.4,206.4L43.4,206.4z"/>
</g>
<g>
	<g>
		<path class="st1" d="M43.5,147.1c2.9-4.8,6.5-8,10.3-12c3.8-4,6.8-9,8.7-14.2c1.6-4.3,2-8.9,3.8-13.1c2.4-5.7,6-10.1,10.5-14.3
			c3.9-3.7,7-8,9.3-12.8c2-4.2,2.7-8.6,4-13c3.4-11.6,13.4-17.5,19.3-27.3c1.7-2.8-2.7-5.3-4.3-2.5c-2.9,4.8-6.5,8-10.3,12
			c-3.8,4-6.8,9-8.7,14.2c-1.6,4.3-2,8.9-3.8,13.1c-2.4,5.7-6,10.1-10.5,14.3c-3.9,3.7-7,8-9.3,12.8c-2,4.2-2.7,8.6-4,13
			c-3.4,11.6-13.4,17.5-19.3,27.3C37.5,147.4,41.8,149.9,43.5,147.1L43.5,147.1z"/>
	</g>
</g>
<g>
	<g>
		<path class="st1" d="M60.7,157c2.9-4.8,7.2-7.4,10.7-11.5c3.4-4.1,5.8-9,6.7-14.2c1.1-6,3-11.5,7.4-15.9c3.6-3.6,7.1-6.2,9.8-10.7
			c1.7-2.8-2.6-5.3-4.3-2.5c-2.9,4.8-7.2,7.4-10.7,11.5c-3.4,4.1-5.8,9-6.7,14.2c-1.1,6-3,11.5-7.4,15.9c-3.6,3.6-7.1,6.2-9.8,10.7
			C54.7,157.2,59,159.7,60.7,157L60.7,157z"/>
	</g>
</g>
</svg>
