<?xml version="1.0" encoding="utf-8"?>
<!-- Generator: Adobe Illustrator 20.1.0, SVG Export Plug-In . SVG Version: 6.00 Build 0)  -->
<svg version="1.1" id="Layer_1" xmlns="http://www.w3.org/2000/svg" xmlns:xlink="http://www.w3.org/1999/xlink" x="0px" y="0px"
	 viewBox="0 0 335.4 214.2" style="enable-background:new 0 0 335.4 214.2;" xml:space="preserve">
<style type="text/css">
	.st0{fill:#2F4F4F;stroke:#FFFFFF;stroke-miterlimit:10;}
	.st1{fill:#FFFFFF;}
	.st2{fill:#FFFFFF;stroke:#FFFFFF;stroke-miterlimit:10;}
</style>
<path class="st0" d="M0.7,79.9h214c9.2-2,23.8-4.5,39.5-13.5c13.5-7.8,22.8-17.5,28.5-23.5c-9,0-18,0-27,0c-1.4-0.3-8.1-1.7-12.4-8
	c-2.9-4.4-3.1-8.8-3.1-10.6c-0.2-15.2-0.1-18.9,0-18.9c0.1,0-0.6,5.6,2.5,8.2c1.8,1.5,4.2,1.2,6.2,1.2c7.3,0,14.5,0,21.8,0
	c2.3,0,6.7,1.6,11,5.2c3.3,2.8,5.2,5.8,6.2,7.8c0.6-1.8,2.1-5.4,5.8-8.7c3.3-2.9,6.8-4.3,8.6-4.3c7.8,0,15.6,0,23.4,0
	c2.9,0,4.3-0.2,5.8-1.2c4.9-3.5,3.1-13.2,3.3-13.2c0.3,0,0.1,12.9,0.2,23.3c0,5.7,0.1,8.8-2,12.2c-3.2,5.3-8.7,6.6-9.6,6.8
	c-11.1-0.1-22.2-0.1-33.4-0.2c-0.2,13.5-2.4,35.5-14,58.9c-22.5,45.6-64,63.7-76,68.4c-2.8,14.4-5.7,28.8-8.5,43.2
	c-10.3-10.4-20.7-20.9-31-31.3c-10.8,2.1-52.8,9.1-95.5-15.7C15.8,137.5,2.9,87.9,0.7,79.9z"/>
<g>
	<g>
		<path class="st1" d="M27.8,113.3c14.2,23.5,35.5,42.3,61,52.7c23.5,9.6,49.9,11.8,74.8,7.1c1.6-0.3,0.9-2.7-0.7-2.4
			c-23.8,4.6-49.1,2.5-71.7-6.4c-25.6-10-47-28.8-61.2-52.2C29.2,110.6,27,111.9,27.8,113.3L27.8,113.3z"/>
	</g>
</g>
<g>
	<g>
		<path class="st1" d="M43.6,113.5c25.8,38.4,71.7,58.5,117.5,51.9c1.6-0.2,0.9-2.6-0.7-2.4c-44.6,6.4-89.5-13.3-114.7-50.7
			C44.9,110.9,42.7,112.2,43.6,113.5L43.6,113.5z"/>
	</g>
</g>
<g>
	<g>
		<path class="st1" d="M59.3,114c23,30.4,59.8,46.6,97.7,43.9c1.6-0.1,1.6-2.6,0-2.5c-37,2.6-73.1-13-95.5-42.7
			C60.5,111.5,58.3,112.7,59.3,114L59.3,114z"/>
	</g>
</g>
<g>
	<g>
		<path class="st1" d="M75.8,113.9c19.7,22.9,48,35.9,78.2,36.4c1.6,0,1.6-2.5,0-2.5c-29.5-0.5-57.1-13.2-76.4-35.7
			C76.5,110.9,74.7,112.7,75.8,113.9L75.8,113.9z"/>
	</g>
</g>
<circle class="st2" cx="31.1" cy="92.9" r="4.6"/>
</svg>
