<?xml version="1.0" encoding="utf-8"?>
<!-- Generator: Adobe Illustrator 20.0.0, SVG Export Plug-In . SVG Version: 6.00 Build 0)  -->
<svg version="1.1" id="Layer_1" xmlns="http://www.w3.org/2000/svg" xmlns:xlink="http://www.w3.org/1999/xlink" x="0px" y="0px"
	 viewBox="0 0 335.4 214.2" style="enable-background:new 0 0 335.4 214.2;" xml:space="preserve">
<style type="text/css">
	.st0{fill:#5D5D5D;stroke:#FFFFFF;stroke-miterlimit:10;}
	.st1{fill:none;stroke:#FFFFFF;stroke-miterlimit:10;}
	.st2{fill:#FFFFFF;stroke:#FFFFFF;stroke-miterlimit:10;}
</style>
<path class="st0" d="M0.7,79.9h214c8.8-0.9,24.1-3.7,40.3-13.1c13.5-7.9,22.5-17.4,27.7-23.9c-9,0-18,0-27,0
	c-1.4-0.3-8.1-1.7-12.4-8c-2.9-4.4-3.1-8.8-3.1-10.6c-0.2-15.2-0.1-18.9,0-18.9c0.1,0-0.6,5.6,2.5,8.2c1.8,1.5,4.2,1.2,6.2,1.2
	c7.3,0,14.5,0,21.8,0c2.3,0,6.7,1.6,11,5.2c3.3,2.8,5.2,5.8,6.2,7.8c0.6-1.8,2.1-5.4,5.8-8.7c3.3-2.9,6.8-4.3,8.6-4.3
	c7.8,0,15.6,0,23.4,0c2.9,0,4.3-0.2,5.8-1.2c4.9-3.5,3.1-13.2,3.3-13.2c0.3,0,0.1,12.9,0.2,23.3c0,5.7,0.1,8.8-2,12.2
	c-3.2,5.3-8.7,6.6-9.6,6.8c-11.1-0.1-22.2-0.1-33.4-0.2c-0.2,13.5-2.4,35.5-14,58.9c-22.5,45.6-64,63.7-76,68.4
	c-2.8,14.4-5.7,28.8-8.5,43.2c-10.3-10.4-20.7-20.9-31-31.3c-10.8,2.1-52.8,9.1-95.5-15.7C15.8,137.5,2.9,87.9,0.7,79.9z"/>
<path class="st1" d="M26.6,108.6c5.9,10.6,20.4,33.5,48.8,49.5c39,22,77.2,15.8,87.9,13.7"/>
<path class="st1" d="M36,108.6c5.9,9.6,20,29.6,46.3,43.5c31.8,16.9,61.9,14.4,72.8,13"/>
<path class="st1" d="M45.9,108.6c5.8,8.6,16.8,22.2,34.8,33.1c27.3,16.5,54.2,16.5,65.1,15.9"/>
<path class="st1" d="M56.3,108.6c6.1,7.2,16.6,17.8,32.3,26.3c19.3,10.4,37.1,12.8,47.2,13.4"/>
<path class="st1" d="M67.5,108.6c4.7,5.3,12.1,12.5,22.7,18.6c13.8,7.9,26.7,10.5,34.6,11.5"/>
<circle class="st2" cx="26" cy="89.8" r="1.4"/>
</svg>
